<svg width="32" height="32" viewBox="0 0 32 32" fill="none" xmlns="http://www.w3.org/2000/svg">
<path d="M16 25.3334C20.4133 25.3334 24 21.7467 24 17.3334V10.6667C24 6.25335 20.4133 2.66669 16 2.66669C11.5867 2.66669 8 6.25335 8 10.6667V17.3334C8 21.7467 11.5867 25.3334 16 25.3334Z" stroke="#158642" stroke-width="1.5" stroke-linecap="round" stroke-linejoin="round"/>
<path d="M4 14.6667V17.3334C4 23.96 9.37333 29.3334 16 29.3334C22.6267 29.3334 28 23.96 28 17.3334V14.6667" stroke="#158642" stroke-width="1.5" stroke-linecap="round" stroke-linejoin="round"/>
<path d="M12.1467 9.9733C14.5201 9.10664 17.1067 9.10664 19.4801 9.9733" stroke="#158642" stroke-width="1.5" stroke-linecap="round" stroke-linejoin="round"/>
<path d="M13.3733 13.9733C14.9733 13.5333 16.6666 13.5333 18.2666 13.9733" stroke="#158642" stroke-width="1.5" stroke-linecap="round" stroke-linejoin="round"/>
</svg>
