<svg width="32" height="32" viewBox="0 0 32 32" fill="none" xmlns="http://www.w3.org/2000/svg">
<path d="M16.7067 27.2266H8.28008C4.06675 27.2266 2.66675 24.4266 2.66675 21.6133V10.3866C2.66675 6.17332 4.06675 4.77332 8.28008 4.77332H16.7067C20.9201 4.77332 22.3201 6.17332 22.3201 10.3866V21.6133C22.3201 25.8266 20.9067 27.2266 16.7067 27.2266Z" stroke="#158642" stroke-width="1.5" stroke-linecap="round" stroke-linejoin="round"/>
<path d="M26.0267 22.8L22.3201 20.2V11.7867L26.0267 9.18666C27.8401 7.91999 29.3334 8.69333 29.3334 10.92V21.08C29.3334 23.3067 27.8401 24.08 26.0267 22.8Z" stroke="#158642" stroke-width="1.5" stroke-linecap="round" stroke-linejoin="round"/>
<path d="M15.3333 14.6667C16.4378 14.6667 17.3333 13.7713 17.3333 12.6667C17.3333 11.5621 16.4378 10.6667 15.3333 10.6667C14.2287 10.6667 13.3333 11.5621 13.3333 12.6667C13.3333 13.7713 14.2287 14.6667 15.3333 14.6667Z" stroke="#158642" stroke-width="1.5" stroke-linecap="round" stroke-linejoin="round"/>
</svg>
