<svg width="147" height="26" viewBox="0 0 147 26" fill="none" xmlns="http://www.w3.org/2000/svg">
<path d="M0 8C0 3.58172 3.58172 0 8 0H28C32.4183 0 36 3.58172 36 8V18C36 22.4183 32.4183 26 28 26H0V8Z" fill="white"/>
<path d="M39 16.6806V8.91711C39 8.53141 39.2218 8.18008 39.5701 8.01425L46.5701 4.68092C47.2337 4.36492 48 4.84878 48 5.58378V20.3473C48 21.099 47.2018 21.5819 46.536 21.2331L39.536 17.5665C39.2065 17.3939 39 17.0526 39 16.6806Z" fill="white"/>
<path d="M71.709 14.1211C71.709 17.9395 69.4238 20.2344 65.5664 20.2344C61.4551 20.2344 58.8965 17.4414 58.8965 12.9004C58.8965 8.42773 61.4453 5.67383 65.5176 5.67383C68.7207 5.67383 71.1426 7.56836 71.6016 10.3906H69.043C68.5645 8.76953 67.2559 7.8125 65.5273 7.8125C62.9883 7.8125 61.4746 9.69727 61.4746 12.8711C61.4746 16.1133 63.0566 18.0957 65.5957 18.0957C67.7246 18.0957 69.1992 16.748 69.2383 14.7754L69.248 14.541H65.8496V12.6172H71.709V14.1211ZM77.2461 18.3301C78.623 18.3301 79.7266 17.4121 79.7266 16.1621V15.3711L77.334 15.5176C76.1621 15.5957 75.4883 16.123 75.4883 16.9434C75.4883 17.793 76.1914 18.3301 77.2461 18.3301ZM76.5137 20.166C74.5117 20.166 73.0566 18.9062 73.0566 17.041C73.0566 15.2051 74.4727 14.1016 76.9922 13.9453L79.7266 13.7891V13.0469C79.7266 11.9629 78.9941 11.3379 77.793 11.3379C76.6406 11.3379 75.9082 11.8945 75.752 12.7539H73.4961C73.6035 10.8203 75.2539 9.43359 77.8906 9.43359C80.459 9.43359 82.1289 10.791 82.1289 12.8711V20H79.7852V18.3496H79.7363C79.1406 19.4727 77.8418 20.166 76.5137 20.166ZM84.7656 7.22656H87.1973V9.64844H89.1504V11.5234H87.1973V16.9043C87.1973 17.7539 87.5879 18.1445 88.4473 18.1445C88.6719 18.1445 88.9844 18.125 89.1406 18.0957V19.9512C88.877 20.0098 88.3984 20.0488 87.8809 20.0488C85.6445 20.0488 84.7656 19.2578 84.7656 17.2461V11.5234H83.2812V9.64844H84.7656V7.22656ZM90.8789 20V5.9082H93.2812V11.4258H93.3301C93.8867 10.166 95.0293 9.45312 96.6016 9.45312C98.8867 9.45312 100.225 10.957 100.225 13.3301V20H97.793V13.8281C97.793 12.3828 97.0703 11.5137 95.6641 11.5137C94.1992 11.5137 93.3105 12.5293 93.3105 14.0527V20H90.8789ZM106.641 11.3184C105.273 11.3184 104.287 12.3633 104.189 13.8086H109.023C108.975 12.3438 108.037 11.3184 106.641 11.3184ZM109.033 16.9043H111.309C110.996 18.8574 109.18 20.2051 106.729 20.2051C103.623 20.2051 101.748 18.1641 101.748 14.8633C101.748 11.5918 103.643 9.43359 106.631 9.43359C109.57 9.43359 111.406 11.4746 111.406 14.6191V15.4102H104.17V15.5566C104.17 17.2168 105.186 18.3301 106.777 18.3301C107.91 18.3301 108.77 17.7637 109.033 16.9043ZM112.979 20V9.64844H115.312V11.4551H115.361C115.713 10.1953 116.621 9.47266 117.842 9.47266C118.154 9.47266 118.428 9.53125 118.604 9.57031V11.7676C118.398 11.6895 118.027 11.6309 117.617 11.6309C116.24 11.6309 115.41 12.5195 115.41 13.9746V20H112.979ZM129.033 9.64844V20H126.689V18.2031H126.641C126.094 19.4629 125.049 20.1855 123.477 20.1855C121.23 20.1855 119.805 18.7305 119.805 16.3379V9.64844H122.236V15.8496C122.236 17.334 122.959 18.1348 124.326 18.1348C125.732 18.1348 126.602 17.1387 126.602 15.6348V9.64844H129.033ZM131.025 20V9.64844H133.359V11.4453H133.408C133.857 10.2441 134.951 9.45312 136.357 9.45312C137.822 9.45312 138.867 10.2051 139.248 11.5332H139.307C139.805 10.2539 141.035 9.45312 142.529 9.45312C144.57 9.45312 145.908 10.8301 145.908 12.9004V20H143.477V13.4961C143.477 12.2266 142.812 11.5039 141.621 11.5039C140.449 11.5039 139.648 12.3633 139.648 13.6035V20H137.285V13.3691C137.285 12.2168 136.582 11.5039 135.449 11.5039C134.277 11.5039 133.457 12.4121 133.457 13.6621V20H131.025Z" fill="white"/>
</svg>
